<?xml version="1.0" encoding="utf-8"?>
<!-- Generator: Adobe Illustrator 24.1.3, SVG Export Plug-In . SVG Version: 6.00 Build 0)  -->
<svg version="1.1" id="Layer_1" xmlns="http://www.w3.org/2000/svg" xmlns:xlink="http://www.w3.org/1999/xlink" x="0px" y="0px"
	 viewBox="0 0 425.2 336" style="enable-background:new 0 0 425.2 336;" xml:space="preserve">
<style type="text/css">
	.st0{fill:#D84B9A;}
	.st1{fill:#5697D1;}
	.st2{fill:#00B9C5;}
	.st3{fill:#FFDD00;}
	.st4{fill:#F6921E;}
	.st5{fill:#FFFFFF;}
</style>
<rect x="69.9" y="104.3" class="st0" width="60.7" height="72"/>
<rect x="69.9" y="183.6" class="st1" width="60.7" height="72"/>
<polygon class="st2" points="365.6,183.6 229.2,170.6 245.4,254 351.9,274.9 "/>
<rect x="138.7" y="147.6" class="st3" width="60.7" height="72"/>
<polygon class="st4" points="229.8,100.1 169.1,100.1 184.1,145 247.3,142.4 "/>
<g>
	<path class="st5" d="M0.8,336v-27.2h21.7v6.8H8v3.3h13.7v6.9H8v3.3h14.5v6.9H0.8z"/>
	<path class="st5" d="M50.5,336l-8.4-13.2V336h-7.7v-27.2h7.5l8.4,13.3v-13.3H58V336H50.5z"/>
	<path class="st5" d="M90.3,315.8h-7V336h-7.8v-20.2h-7l-0.7-0.7v-6.4h23.2v6.4L90.3,315.8z"/>
	<path class="st5" d="M101.9,336v-27.2h21.7v6.8h-14.4v3.3h13.7v6.9h-13.7v3.3h14.4v6.9H101.9z"/>
	<path class="st5" d="M152.7,336l-4.3-8.3h-4.8v8.3h-8v-27.2h14.2c0.6,0,1.3,0.1,2,0.3c0.7,0.2,1.3,0.4,2,0.7
		c0.6,0.3,1.2,0.7,1.8,1.1c0.5,0.4,1,0.9,1.4,1.5c0.5,0.7,0.8,1.4,1.1,2.2c0.2,0.8,0.4,1.6,0.4,2.4c0,1.3-0.3,2.6-0.9,3.7
		c-0.6,1.2-1.4,2.2-2.5,3l6.4,12.2H152.7z M147.5,315.1h-4v5.2h4c0.7,0,1.3-0.3,1.9-0.8c0.5-0.5,0.8-1.1,0.8-1.9
		c0-0.7-0.3-1.3-0.8-1.8C148.9,315.4,148.2,315.1,147.5,315.1z"/>
	<path class="st5" d="M191.2,315.8h-7V336h-7.8v-20.2h-7l-0.7-0.7v-6.4h23.2v6.4L191.2,315.8z"/>
	<path class="st5" d="M216,336l-1.4-3.7h-7.8l-1.4,3.7h-8l10-27.2h6.6l10,27.2H216z M210.7,320.3l-1.7,5.3h3.5L210.7,320.3z"/>
	<path class="st5" d="M235.4,336v-27.2h8V336H235.4z"/>
	<path class="st5" d="M272,336l-8.4-13.2V336h-7.7v-27.2h7.5l8.4,13.3v-13.3h7.7V336H272z"/>
	<path class="st5" d="M312.3,336v-12.7l-5,8.2c-0.1,0.2-0.3,0.4-0.5,0.4c-0.2,0.1-0.4,0.1-0.6,0.1c-0.1,0-0.3,0-0.5-0.1
		c-0.2-0.1-0.4-0.2-0.5-0.4l-5-8.2V336h-7.7v-27.2h6.9c0.4,0,0.7,0.2,0.9,0.5l6,9.9l6-9.9c0.2-0.3,0.5-0.5,0.9-0.5h6.9V336H312.3z"
		/>
	<path class="st5" d="M333.8,336v-27.2h21.7v6.8H341v3.3h13.7v6.9H341v3.3h14.4v6.9H333.8z"/>
	<path class="st5" d="M383.5,336l-8.4-13.2V336h-7.7v-27.2h7.5l8.4,13.3v-13.3h7.7V336H383.5z"/>
	<path class="st5" d="M423.3,315.8h-7V336h-7.8v-20.2h-7l-0.7-0.7v-6.4h23.2v6.4L423.3,315.8z"/>
</g>
<g>
	<path class="st5" d="M0.8,285.5v-38.9h17.3V115.2H0.8V76.6h111.5c24.9,0,43.3,4.4,55.3,13.3c12,8.9,17.9,21.5,17.9,37.8
		c0,6.4-0.5,11.9-1.5,16.6c-1,4.7-2.6,8.9-4.8,12.6c-2.2,3.7-5.2,6.9-9,9.7c-3.8,2.8-8.5,5.3-14,7.5c5.4,1.6,10.5,3.7,15.2,6.4
		c4.8,2.7,9,6.1,12.6,10.3c3.6,4.2,6.4,9.1,8.5,14.8c2.1,5.7,3.1,12.1,3.1,19.3c0,21.1-6.3,36.5-19,46.2
		c-12.7,9.7-33.4,14.5-62.3,14.5H0.8z M80,116.1v44.8h18.2c8,0,13.3-2,16.1-6.1c2.8-4.1,4.2-9.7,4.2-16.9c0-7-1.8-12.4-5.5-16.1
		c-3.7-3.8-8.4-5.7-14.2-5.7H80z M103.9,246.7c6.4,0,12-2.2,16.9-6.7c4.9-4.5,7.3-10.8,7.3-19c0-7.6-2.1-13.8-6.3-18.8
		c-4.2-5-10.5-7.5-18.8-7.5H80v52H103.9z"/>
</g>
<g>
	<path class="st5" d="M249.2,285.7l-69.3-0.2v-39.2h12.6v-71.4H180v-38.9h69.3v110.3L249.2,285.7z"/>
</g>
<g>
	<path class="st5" d="M238.7,210.9c46.6-0.2,60.7,0.1,60.7,0.1c0.7,13.2,3.5,21.4,11.8,28.5c9.6,8.2,27.2,12,37.1,3.9
		c10.1-8.2,12.1-19.8-4-26.1c-5.8-2.3-12.8-4.9-21.2-7.3c-8.5-2.4-17.7-5.1-27.6-8.2c-10-3.1-19.2-7.3-27.6-12.7
		c-8.5-5.4-15.5-12.2-21.2-20.5c-5.7-8.3-8.5-18.8-8.5-31.5c0-11,2.3-20.5,7-28.7c4.7-8.2,10.6-14.8,17.6-20
		c7.1-5.2,14.7-9.1,23-11.7c8.3-2.6,16.1-3.9,23.5-3.9c6.2,0,12.4,0.6,18.5,1.6c6.2,1.1,12.1,2.8,17.6,5.2
		c5.6,2.4,10.6,5.5,15.1,9.4c4.5,3.9,8.2,8.6,11.2,14.2l3-25.1H426v75h-54.1c0-5.6-1-10.5-3-14.8c-2-4.3-4.7-7.9-8.2-10.9
		c-3.5-3-7.6-5.2-12.3-6.7c-4.7-1.5-9.6-2.2-14.8-2.2c-2.2,0-4.5,0.4-6.9,1c-2.4,0.7-4.6,1.7-6.7,3c-2.1,1.3-3.8,2.9-5.1,4.9
		c-1.3,2-1.9,4.3-1.9,6.9c0,5.2,2.9,9.5,8.8,12.9c5.9,3.4,13.2,6.6,22,9.6c8.8,3,18.2,6.3,28.4,9.7c27.8,9.3,54.6,37.9,53.8,64
		C423.4,318.4,236,319.1,238.7,210.9z"/>
</g>
<polygon class="st5" points="290.6,56.9 251.8,93 259.6,145.5 213.2,119.7 165.7,143.4 175.9,91.3 138.7,53.5 191.4,47 215.9,0 
	238.3,48.1 "/>
</svg>
